####
#
# OBJ File Generated by Meshlab
#
####
# Object shell.obj
#
# Vertices: 160
# Faces: 320
#
####
vn -3.135619 0.136901 -3.054328
v -0.067500 0.025000 -0.000000
vn -3.135616 -0.136901 -3.054329
v -0.067500 -0.025000 -0.000000
vn -3.135616 0.136901 3.054329
v -0.067500 0.025000 0.630000
vn -3.135619 -0.136901 3.054328
v -0.067500 -0.025000 0.630000
vn 0.136905 -3.135619 3.054326
v 0.392500 -0.075000 0.630000
vn -0.136905 -3.135615 3.054318
v -0.017500 -0.075000 0.630000
vn 0.136905 -3.135615 -3.054318
v 0.392500 -0.075000 0.000000
vn -0.136905 -3.135619 -3.054327
v -0.017500 -0.075000 -0.000000
vn 3.135619 -0.136902 -3.054327
v 0.442500 -0.025000 0.000000
vn 3.135615 0.136902 -3.054328
v 0.442500 0.025000 0.000000
vn 3.135615 -0.136902 3.054328
v 0.442500 -0.025000 0.630000
vn 3.135619 0.136902 3.054327
v 0.442500 0.025000 0.630000
vn 0.136905 3.135618 -3.054326
v 0.392500 0.075000 0.000000
vn -0.136905 3.135615 -3.054318
v -0.017500 0.075000 -0.000000
vn 0.136905 3.135615 3.054318
v 0.392500 0.075000 0.630000
vn -0.136905 3.135619 3.054327
v -0.017500 0.075000 0.630000
vn -2.011695 -2.397437 3.316126
v 0.423354 0.061770 0.630000
vn 2.011696 2.397442 2.967054
v 0.424639 0.063302 0.630000
vn -1.564823 -2.710342 3.316124
v 0.416500 0.066569 0.630000
vn 1.564818 2.710351 2.967062
v 0.417500 0.068301 0.630000
vn -1.070400 -2.940895 3.316130
v 0.408917 0.070105 0.630000
vn 1.070401 2.940901 2.967061
v 0.409601 0.071985 0.630000
vn -0.543453 -3.082091 3.316124
v 0.400835 0.072271 0.630000
vn 0.543458 3.082095 2.967060
v 0.401182 0.074240 0.630000
vn -0.136904 -3.135615 3.228859
v 0.392500 0.073000 0.630000
vn 0.136903 -3.135613 3.228852
v -0.017500 0.073000 0.630000
vn 0.543455 -3.082090 3.316126
v -0.025835 0.072271 0.630000
vn -0.543458 3.082095 2.967059
v -0.026182 0.074240 0.630000
vn 1.070399 -2.940896 3.316126
v -0.033917 0.070105 0.630000
vn -1.070401 2.940901 2.967061
v -0.034601 0.071985 0.630000
vn 1.564818 -2.710345 3.316125
v -0.041500 0.066569 0.630000
vn -1.564821 2.710348 2.967058
v -0.042500 0.068301 0.630000
vn 2.011691 -2.397441 3.316126
v -0.048354 0.061770 0.630000
vn -2.011694 2.397445 2.967062
v -0.049639 0.063302 0.630000
vn 2.397440 -2.011691 3.316126
v -0.054270 0.055854 0.630000
vn -2.397443 2.011696 2.967057
v -0.055802 0.057139 0.630000
vn 2.710345 -1.564816 3.316127
v -0.059069 0.049000 0.630000
vn -2.710349 1.564820 2.967061
v -0.060801 0.050000 0.630000
vn 2.940897 -1.070397 3.316124
v -0.062605 0.041417 0.630000
vn -2.940901 1.070401 2.967060
v -0.064485 0.042101 0.630000
vn 3.082090 -0.543456 3.316125
v -0.064771 0.033335 0.630000
vn -3.082095 0.543453 2.967057
v -0.066740 0.033682 0.630000
vn 3.135615 -0.136905 3.228860
v -0.065500 0.025000 0.630000
vn 3.135613 0.136905 3.228860
v -0.065500 -0.025000 0.630000
vn 3.082090 0.543456 3.316125
v -0.064771 -0.033335 0.630000
vn -3.082095 -0.543454 2.967057
v -0.066740 -0.033682 0.630000
vn 2.940897 1.070396 3.316124
v -0.062605 -0.041417 0.630000
vn -2.940900 -1.070401 2.967060
v -0.064485 -0.042101 0.630000
vn 2.710345 1.564816 3.316127
v -0.059069 -0.049000 0.630000
vn -2.710349 -1.564821 2.967061
v -0.060801 -0.050000 0.630000
vn 2.397440 2.011691 3.316126
v -0.054270 -0.055854 0.630000
vn -2.397443 -2.011696 2.967057
v -0.055802 -0.057139 0.630000
vn 2.011691 2.397440 3.316126
v -0.048354 -0.061770 0.630000
vn -2.011693 -2.397446 2.967062
v -0.049639 -0.063302 0.630000
vn 1.564818 2.710344 3.316124
v -0.041500 -0.066569 0.630000
vn -1.564821 -2.710349 2.967058
v -0.042500 -0.068301 0.630000
vn 1.070399 2.940896 3.316126
v -0.033917 -0.070105 0.630000
vn -1.070400 -2.940901 2.967062
v -0.034601 -0.071985 0.630000
vn 0.543455 3.082090 3.316126
v -0.025835 -0.072271 0.630000
vn -0.543458 -3.082095 2.967060
v -0.026182 -0.074240 0.630000
vn 0.136904 3.135615 3.228858
v -0.017500 -0.073000 0.630000
vn -0.136904 3.135614 3.228852
v 0.392500 -0.073000 0.630000
vn -0.543453 3.082091 3.316124
v 0.400835 -0.072271 0.630000
vn 0.543459 -3.082094 2.967059
v 0.401182 -0.074240 0.630000
vn -1.070399 2.940895 3.316129
v 0.408917 -0.070105 0.630000
vn 1.070402 -2.940900 2.967060
v 0.409601 -0.071985 0.630000
vn -1.564823 2.710342 3.316124
v 0.416500 -0.066569 0.630000
vn 1.564818 -2.710351 2.967062
v 0.417500 -0.068301 0.630000
vn -2.011695 2.397437 3.316127
v 0.423354 -0.061770 0.630000
vn 2.011696 -2.397442 2.967054
v 0.424639 -0.063302 0.630000
vn -2.397442 2.011690 3.316123
v 0.429270 -0.055854 0.630000
vn 2.397444 -2.011697 2.967068
v 0.430802 -0.057139 0.630000
vn -2.710344 1.564818 3.316127
v 0.434069 -0.049000 0.630000
vn 2.710349 -1.564818 2.967048
v 0.435801 -0.050000 0.630000
vn -2.940894 1.070408 3.316118
v 0.437605 -0.041417 0.630000
vn 2.940903 -1.070398 2.967071
v 0.439485 -0.042101 0.630000
vn -3.082088 0.543461 3.316135
v 0.439771 -0.033335 0.630000
vn 3.082093 -0.543461 2.967054
v 0.441740 -0.033682 0.630000
vn -3.135616 0.136899 3.228856
v 0.440500 -0.025000 0.630000
vn -3.135614 -0.136899 3.228857
v 0.440500 0.025000 0.630000
vn -3.082088 -0.543461 3.316135
v 0.439771 0.033335 0.630000
vn 3.082093 0.543462 2.967054
v 0.441740 0.033682 0.630000
vn -2.940894 -1.070407 3.316118
v 0.437605 0.041417 0.630000
vn 2.940903 1.070398 2.967071
v 0.439485 0.042101 0.630000
vn -2.710345 -1.564818 3.316127
v 0.434069 0.049000 0.630000
vn 2.710349 1.564818 2.967048
v 0.435801 0.050000 0.630000
vn -2.397442 -2.011690 3.316123
v 0.429270 0.055854 0.630000
vn 2.397444 2.011697 2.967068
v 0.430802 0.057139 0.630000
vn -0.136904 3.135615 -3.228859
v 0.392500 -0.073000 0.000000
vn 0.136903 3.135614 -3.228852
v -0.017500 -0.073000 -0.000000
vn 0.543455 3.082090 -3.316126
v -0.025835 -0.072271 -0.000000
vn -0.543458 -3.082095 -2.967059
v -0.026182 -0.074240 -0.000000
vn 1.070399 2.940896 -3.316126
v -0.033917 -0.070105 -0.000000
vn -1.070401 -2.940901 -2.967061
v -0.034601 -0.071985 -0.000000
vn 1.564818 2.710345 -3.316125
v -0.041500 -0.066569 -0.000000
vn -1.564821 -2.710348 -2.967058
v -0.042500 -0.068301 -0.000000
vn 2.011691 2.397441 -3.316126
v -0.048354 -0.061770 -0.000000
vn -2.011694 -2.397445 -2.967062
v -0.049639 -0.063302 -0.000000
vn 2.397440 2.011692 -3.316126
v -0.054270 -0.055854 -0.000000
vn -2.397443 -2.011696 -2.967057
v -0.055802 -0.057139 -0.000000
vn 2.710345 1.564816 -3.316127
v -0.059069 -0.049000 -0.000000
vn -2.710349 -1.564820 -2.967061
v -0.060801 -0.050000 -0.000000
vn 2.940897 1.070397 -3.316124
v -0.062605 -0.041417 -0.000000
vn -2.940901 -1.070401 -2.967060
v -0.064485 -0.042101 -0.000000
vn 3.082090 0.543456 -3.316125
v -0.064771 -0.033335 -0.000000
vn -3.082095 -0.543453 -2.967057
v -0.066740 -0.033682 -0.000000
vn 3.135615 0.136905 -3.228860
v -0.065500 -0.025000 -0.000000
vn 3.135613 -0.136905 -3.228860
v -0.065500 0.025000 -0.000000
vn 3.082090 -0.543456 -3.316125
v -0.064771 0.033335 -0.000000
vn -3.082095 0.543454 -2.967057
v -0.066740 0.033682 -0.000000
vn 2.940897 -1.070396 -3.316124
v -0.062605 0.041417 -0.000000
vn -2.940900 1.070401 -2.967060
v -0.064485 0.042101 -0.000000
vn 2.710345 -1.564816 -3.316127
v -0.059069 0.049000 -0.000000
vn -2.710349 1.564821 -2.967061
v -0.060801 0.050000 -0.000000
vn 2.397440 -2.011691 -3.316126
v -0.054270 0.055854 -0.000000
vn -2.397443 2.011696 -2.967057
v -0.055802 0.057139 -0.000000
vn 2.011691 -2.397440 -3.316126
v -0.048354 0.061770 -0.000000
vn -2.011693 2.397446 -2.967062
v -0.049639 0.063302 -0.000000
vn 1.564818 -2.710344 -3.316124
v -0.041500 0.066569 -0.000000
vn -1.564821 2.710349 -2.967058
v -0.042500 0.068301 -0.000000
vn 1.070399 -2.940896 -3.316126
v -0.033917 0.070105 -0.000000
vn -1.070400 2.940901 -2.967062
v -0.034601 0.071985 -0.000000
vn 0.543455 -3.082090 -3.316126
v -0.025835 0.072271 -0.000000
vn -0.543458 3.082095 -2.967060
v -0.026182 0.074240 -0.000000
vn 0.136904 -3.135615 -3.228858
v -0.017500 0.073000 -0.000000
vn -0.136904 -3.135614 -3.228852
v 0.392500 0.073000 0.000000
vn -0.543453 -3.082091 -3.316124
v 0.400835 0.072271 0.000000
vn 0.543459 3.082094 -2.967059
v 0.401182 0.074240 0.000000
vn -1.070399 -2.940895 -3.316129
v 0.408917 0.070105 0.000000
vn 1.070402 2.940900 -2.967060
v 0.409601 0.071985 0.000000
vn -1.564823 -2.710342 -3.316124
v 0.416500 0.066569 0.000000
vn 1.564818 2.710351 -2.967062
v 0.417500 0.068301 0.000000
vn -2.011695 -2.397437 -3.316127
v 0.423354 0.061770 0.000000
vn 2.011696 2.397442 -2.967054
v 0.424639 0.063302 0.000000
vn -2.397442 -2.011690 -3.316123
v 0.429270 0.055854 0.000000
vn 2.397444 2.011697 -2.967068
v 0.430802 0.057139 0.000000
vn -2.710344 -1.564818 -3.316127
v 0.434069 0.049000 0.000000
vn 2.710349 1.564818 -2.967048
v 0.435801 0.050000 0.000000
vn -2.940894 -1.070408 -3.316118
v 0.437605 0.041417 0.000000
vn 2.940903 1.070398 -2.967071
v 0.439485 0.042101 0.000000
vn -3.082088 -0.543461 -3.316135
v 0.439771 0.033335 0.000000
vn 3.082093 0.543461 -2.967054
v 0.441740 0.033682 0.000000
vn -3.135616 -0.136899 -3.228856
v 0.440500 0.025000 0.000000
vn -3.135614 0.136899 -3.228857
v 0.440500 -0.025000 0.000000
vn -3.082088 0.543461 -3.316135
v 0.439771 -0.033335 0.000000
vn 3.082093 -0.543462 -2.967054
v 0.441740 -0.033682 0.000000
vn -2.940894 1.070407 -3.316118
v 0.437605 -0.041417 0.000000
vn 2.940903 -1.070398 -2.967071
v 0.439485 -0.042101 0.000000
vn -2.710345 1.564818 -3.316127
v 0.434069 -0.049000 0.000000
vn 2.710349 -1.564818 -2.967048
v 0.435801 -0.050000 0.000000
vn -2.397442 2.011690 -3.316123
v 0.429270 -0.055854 0.000000
vn 2.397444 -2.011697 -2.967068
v 0.430802 -0.057139 0.000000
vn -2.011695 2.397437 -3.316126
v 0.423354 -0.061770 0.000000
vn 2.011696 -2.397442 -2.967054
v 0.424639 -0.063302 0.000000
vn -1.564823 2.710342 -3.316124
v 0.416500 -0.066569 0.000000
vn 1.564818 -2.710351 -2.967062
v 0.417500 -0.068301 0.000000
vn -1.070400 2.940895 -3.316130
v 0.408917 -0.070105 0.000000
vn 1.070401 -2.940901 -2.967061
v 0.409601 -0.071985 0.000000
vn -0.543453 3.082091 -3.316124
v 0.400835 -0.072271 0.000000
vn 0.543458 -3.082095 -2.967060
v 0.401182 -0.074240 0.000000
# 160 vertices, 0 vertices normals

f 1//1 2//2 3//3
f 3//3 2//2 4//4
f 5//5 6//6 7//7
f 7//7 6//6 8//8
f 9//9 10//10 11//11
f 11//11 10//10 12//12
f 13//13 14//14 15//15
f 15//15 14//14 16//16
f 17//17 18//18 19//19
f 19//19 18//18 20//20
f 19//19 20//20 21//21
f 21//21 20//20 22//22
f 21//21 22//22 23//23
f 23//23 22//22 24//24
f 23//23 24//24 25//25
f 25//25 24//24 15//15
f 25//25 15//15 26//26
f 26//26 15//15 16//16
f 26//26 16//16 27//27
f 27//27 16//16 28//28
f 27//27 28//28 29//29
f 29//29 28//28 30//30
f 29//29 30//30 31//31
f 31//31 30//30 32//32
f 31//31 32//32 33//33
f 33//33 32//32 34//34
f 33//33 34//34 35//35
f 35//35 34//34 36//36
f 35//35 36//36 37//37
f 37//37 36//36 38//38
f 37//37 38//38 39//39
f 39//39 38//38 40//40
f 39//39 40//40 41//41
f 41//41 40//40 42//42
f 41//41 42//42 43//43
f 43//43 42//42 3//3
f 43//43 3//3 44//44
f 44//44 3//3 4//4
f 44//44 4//4 45//45
f 45//45 4//4 46//46
f 45//45 46//46 47//47
f 47//47 46//46 48//48
f 47//47 48//48 49//49
f 49//49 48//48 50//50
f 49//49 50//50 51//51
f 51//51 50//50 52//52
f 51//51 52//52 53//53
f 53//53 52//52 54//54
f 53//53 54//54 55//55
f 55//55 54//54 56//56
f 55//55 56//56 57//57
f 57//57 56//56 58//58
f 57//57 58//58 59//59
f 59//59 58//58 60//60
f 59//59 60//60 61//61
f 61//61 60//60 6//6
f 61//61 6//6 62//62
f 62//62 6//6 5//5
f 62//62 5//5 63//63
f 63//63 5//5 64//64
f 63//63 64//64 65//65
f 65//65 64//64 66//66
f 65//65 66//66 67//67
f 67//67 66//66 68//68
f 67//67 68//68 69//69
f 69//69 68//68 70//70
f 69//69 70//70 71//71
f 71//71 70//70 72//72
f 71//71 72//72 73//73
f 73//73 72//72 74//74
f 73//73 74//74 75//75
f 75//75 74//74 76//76
f 75//75 76//76 77//77
f 77//77 76//76 78//78
f 77//77 78//78 79//79
f 79//79 78//78 11//11
f 79//79 11//11 80//80
f 80//80 11//11 12//12
f 80//80 12//12 81//81
f 81//81 12//12 82//82
f 81//81 82//82 83//83
f 83//83 82//82 84//84
f 83//83 84//84 85//85
f 85//85 84//84 86//86
f 85//85 86//86 87//87
f 87//87 86//86 88//88
f 87//87 88//88 17//17
f 17//17 88//88 18//18
f 89//89 7//7 90//90
f 90//90 7//7 8//8
f 90//90 8//8 91//91
f 91//91 8//8 92//92
f 91//91 92//92 93//93
f 93//93 92//92 94//94
f 93//93 94//94 95//95
f 95//95 94//94 96//96
f 95//95 96//96 97//97
f 97//97 96//96 98//98
f 97//97 98//98 99//99
f 99//99 98//98 100//100
f 99//99 100//100 101//101
f 101//101 100//100 102//102
f 101//101 102//102 103//103
f 103//103 102//102 104//104
f 103//103 104//104 105//105
f 105//105 104//104 106//106
f 105//105 106//106 107//107
f 107//107 106//106 2//2
f 107//107 2//2 108//108
f 108//108 2//2 1//1
f 108//108 1//1 109//109
f 109//109 1//1 110//110
f 109//109 110//110 111//111
f 111//111 110//110 112//112
f 111//111 112//112 113//113
f 113//113 112//112 114//114
f 113//113 114//114 115//115
f 115//115 114//114 116//116
f 115//115 116//116 117//117
f 117//117 116//116 118//118
f 117//117 118//118 119//119
f 119//119 118//118 120//120
f 119//119 120//120 121//121
f 121//121 120//120 122//122
f 121//121 122//122 123//123
f 123//123 122//122 124//124
f 123//123 124//124 125//125
f 125//125 124//124 14//14
f 125//125 14//14 126//126
f 126//126 14//14 13//13
f 126//126 13//13 127//127
f 127//127 13//13 128//128
f 127//127 128//128 129//129
f 129//129 128//128 130//130
f 129//129 130//130 131//131
f 131//131 130//130 132//132
f 131//131 132//132 133//133
f 133//133 132//132 134//134
f 133//133 134//134 135//135
f 135//135 134//134 136//136
f 135//135 136//136 137//137
f 137//137 136//136 138//138
f 137//137 138//138 139//139
f 139//139 138//138 140//140
f 139//139 140//140 141//141
f 141//141 140//140 142//142
f 141//141 142//142 143//143
f 143//143 142//142 10//10
f 143//143 10//10 144//144
f 144//144 10//10 9//9
f 144//144 9//9 145//145
f 145//145 9//9 146//146
f 145//145 146//146 147//147
f 147//147 146//146 148//148
f 147//147 148//148 149//149
f 149//149 148//148 150//150
f 149//149 150//150 151//151
f 151//151 150//150 152//152
f 151//151 152//152 153//153
f 153//153 152//152 154//154
f 153//153 154//154 155//155
f 155//155 154//154 156//156
f 155//155 156//156 157//157
f 157//157 156//156 158//158
f 157//157 158//158 159//159
f 159//159 158//158 160//160
f 159//159 160//160 89//89
f 89//89 160//160 7//7
f 5//5 7//7 160//160
f 5//5 160//160 64//64
f 64//64 160//160 158//158
f 64//64 158//158 66//66
f 66//66 158//158 156//156
f 66//66 156//156 68//68
f 68//68 156//156 154//154
f 68//68 154//154 70//70
f 70//70 154//154 152//152
f 70//70 152//152 72//72
f 72//72 152//152 150//150
f 72//72 150//150 74//74
f 74//74 150//150 148//148
f 74//74 148//148 76//76
f 76//76 148//148 146//146
f 76//76 146//146 78//78
f 78//78 146//146 9//9
f 78//78 9//9 11//11
f 12//12 10//10 142//142
f 12//12 142//142 82//82
f 82//82 142//142 140//140
f 82//82 140//140 84//84
f 84//84 140//140 138//138
f 84//84 138//138 86//86
f 86//86 138//138 136//136
f 86//86 136//136 88//88
f 88//88 136//136 134//134
f 88//88 134//134 18//18
f 18//18 134//134 132//132
f 18//18 132//132 20//20
f 20//20 132//132 130//130
f 20//20 130//130 22//22
f 22//22 130//130 128//128
f 22//22 128//128 24//24
f 24//24 128//128 13//13
f 24//24 13//13 15//15
f 16//16 14//14 124//124
f 16//16 124//124 28//28
f 28//28 124//124 122//122
f 28//28 122//122 30//30
f 30//30 122//122 120//120
f 30//30 120//120 32//32
f 32//32 120//120 118//118
f 32//32 118//118 34//34
f 34//34 118//118 116//116
f 34//34 116//116 36//36
f 36//36 116//116 114//114
f 36//36 114//114 38//38
f 38//38 114//114 112//112
f 38//38 112//112 40//40
f 40//40 112//112 110//110
f 40//40 110//110 42//42
f 42//42 110//110 1//1
f 42//42 1//1 3//3
f 4//4 2//2 106//106
f 4//4 106//106 46//46
f 46//46 106//106 104//104
f 46//46 104//104 48//48
f 48//48 104//104 102//102
f 48//48 102//102 50//50
f 50//50 102//102 100//100
f 50//50 100//100 52//52
f 52//52 100//100 98//98
f 52//52 98//98 54//54
f 54//54 98//98 96//96
f 54//54 96//96 56//56
f 56//56 96//96 94//94
f 56//56 94//94 58//58
f 58//58 94//94 92//92
f 58//58 92//92 60//60
f 60//60 92//92 8//8
f 60//60 8//8 6//6
f 107//107 108//108 44//44
f 44//44 108//108 43//43
f 90//90 61//61 89//89
f 89//89 61//61 62//62
f 143//143 144//144 80//80
f 80//80 144//144 79//79
f 125//125 126//126 26//26
f 26//26 126//126 25//25
f 79//79 144//144 77//77
f 77//77 144//144 145//145
f 77//77 145//145 75//75
f 75//75 145//145 147//147
f 75//75 147//147 73//73
f 73//73 147//147 149//149
f 73//73 149//149 71//71
f 71//71 149//149 151//151
f 71//71 151//151 69//69
f 69//69 151//151 153//153
f 69//69 153//153 67//67
f 67//67 153//153 155//155
f 67//67 155//155 65//65
f 65//65 155//155 157//157
f 65//65 157//157 63//63
f 63//63 157//157 159//159
f 63//63 159//159 62//62
f 62//62 159//159 89//89
f 25//25 126//126 23//23
f 23//23 126//126 127//127
f 23//23 127//127 21//21
f 21//21 127//127 129//129
f 21//21 129//129 19//19
f 19//19 129//129 131//131
f 19//19 131//131 17//17
f 17//17 131//131 133//133
f 17//17 133//133 87//87
f 87//87 133//133 135//135
f 87//87 135//135 85//85
f 85//85 135//135 137//137
f 85//85 137//137 83//83
f 83//83 137//137 139//139
f 83//83 139//139 81//81
f 81//81 139//139 141//141
f 81//81 141//141 80//80
f 80//80 141//141 143//143
f 43//43 108//108 41//41
f 41//41 108//108 109//109
f 41//41 109//109 39//39
f 39//39 109//109 111//111
f 39//39 111//111 37//37
f 37//37 111//111 113//113
f 37//37 113//113 35//35
f 35//35 113//113 115//115
f 35//35 115//115 33//33
f 33//33 115//115 117//117
f 33//33 117//117 31//31
f 31//31 117//117 119//119
f 31//31 119//119 29//29
f 29//29 119//119 121//121
f 29//29 121//121 27//27
f 27//27 121//121 123//123
f 27//27 123//123 26//26
f 26//26 123//123 125//125
f 61//61 90//90 59//59
f 59//59 90//90 91//91
f 59//59 91//91 57//57
f 57//57 91//91 93//93
f 57//57 93//93 55//55
f 55//55 93//93 95//95
f 55//55 95//95 53//53
f 53//53 95//95 97//97
f 53//53 97//97 51//51
f 51//51 97//97 99//99
f 51//51 99//99 49//49
f 49//49 99//99 101//101
f 49//49 101//101 47//47
f 47//47 101//101 103//103
f 47//47 103//103 45//45
f 45//45 103//103 105//105
f 45//45 105//105 44//44
f 44//44 105//105 107//107
# 320 faces, 0 coords texture

# End of File
